:SAMPLES-PER-SECOND 30
:FULLY-SPECIFIED
:DEGREES
1215
root  32.2422 36.8042 12.1481 26.3921 82.3337 33.9485
RightUpLeg  -21.9273 -14.6573 -9.28308
RightLeg  47.3586 -4.10547 -5.10442
RightFoot  -14.0176 -0.0664596 1.21792
RightToes  0.000481921 0.542163 -0.142578
Spine  30.0566 -5.98365 10.9665
Spine1  18.3205 -5.01166 4.8018
HEad  4.42656 1.85377 -4.70385
LeftShoulder1  4.14968 -16.626 -13.6245
LeftArm  -24.2456 -49.6417 -64.269
LeftForeArm  -179.48 -68.5494 -156.516
LeftHand  -0.25398 0.0180481 5.50724
RightShoulder  1.59608 9.71456 4.17099
RightArm  -23.6572 54.4804 57.6393
RightForeArm  139.872 73.9655 141.441
RightHand  -2.68505 10.3992 -20.0105
LeftUpLeg  -14.725 18.6585 8.90774
LeftLeg  41.2141 7.459 7.32818
LeftFoot  -11.4084 0.0614763 -11.5143
LeftToes  1.06244e-005 4.65869e-005 -8.65518e-006
1216
root  32.3173 36.819 12.1904 26.2666 82.3642 33.802
RightUpLeg  -21.7611 -15.0482 -9.25472
RightLeg  47.2931 -3.90685 -4.86628
RightFoot  -14.1468 -0.0702021 1.04284
RightToes  0.000481921 0.542163 -0.142578
Spine  29.6222 -6.09044 11.0633
Spine1  18.8575 -5.18254 4.82523
HEad  3.53397 2.39194 -5.13018
LeftShoulder1  4.40063 -16.9306 -14.6311
LeftArm  -22.8873 -47.4609 -64.7574
LeftForeArm  -179.41 -68.533 -156.542
LeftHand  -0.25398 0.0180481 5.50724
RightShoulder  1.70898 9.8422 4.99596
RightArm  -22.8754 53.4311 57.8077
RightForeArm  142.029 73.5129 142.9
RightHand  -2.57789 10.1749 -19.5095
LeftUpLeg  -14.5485 18.8529 9.06393
LeftLeg  41.0878 7.31176 7.16334
LeftFoot  -11.4436 0.0581301 -11.4548
LeftToes  1.06244e-005 4.65869e-005 -8.65518e-006
1217
root  32.4114 36.9903 12.1918 26.4614 82.2636 33.874
RightUpLeg  -21.1403 -15.4229 -9.37365
RightLeg  46.1396 -3.69147 -4.43912
RightFoot  -13.8132 -0.0737259 0.916984
RightToes  0.000481921 0.542163 -0.142578
Spine  29.1689 -6.12362 11.0426
Spine1  18.9752 -5.19075 4.56802
HEad  2.86141 2.87038 -5.58087
LeftShoulder1  4.59328 -17.1986 -15.3408
LeftArm  -22.0496 -45.4605 -64.7975
LeftForeArm  -179.503 -68.6967 -156.342
LeftHand  -0.25398 0.0180481 5.50724
RightShoulder  1.83058 9.88546 5.97415
RightArm  -21.8402 51.8513 58.1682
RightForeArm  144.369 72.6522 145.158
RightHand  -2.45771 9.82817 -19.042
LeftUpLeg  -13.8294 19.3196 9.02964
LeftLeg  39.7773 7.24185 6.79462
LeftFoot  -11.0044 0.0989836 -11.2864
LeftToes  1.06244e-005 4.65869e-005 -8.65518e-006
1218
root  32.5158 37.302 12.1659 26.4971 82.1547 33.4644
RightUpLeg  -20.3317 -15.7448 -9.37255
RightLeg  43.9293 -3.55569 -3.97776
RightFoot  -12.9661 -0.0763529 0.820143
RightToes  0.000481921 0.542163 -0.142578
Spine  28.4849 -6.04795 10.8935
Spine1  18.7506 -5.12788 4.28364
HEad  2.38791 3.57478 -6.43638
LeftShoulder1  4.72221 -17.3842 -15.7964
LeftArm  -22.041 -43.9697 -64.0778
LeftForeArm  -178.966 -68.7447 -156.349
LeftHand  -0.25398 0.0180481 5.50724
RightShoulder  1.96304 9.8351 7.1485
RightArm  -20.1626 49.6048 58.7586
RightForeArm  147.06 71.3121 148.111
RightHand  -2.3163 9.26106 -18.6492
LeftUpLeg  -12.9045 20.0522 8.89001
LeftLeg  37.3773 7.1803 6.21743
LeftFoot  -10.0583 0.182798 -10.949
LeftToes  1.06244e-005 4.65869e-005 -8.65518e-006
1219
root  32.6319 37.7271 12.1191 26.6052 82.1857 32.7742
RightUpLeg  -19.3732 -16.2846 -9.20882
RightLeg  40.7219 -3.39213 -3.42044
RightFoot  -11.6337 -0.0754808 0.699275
RightToes  0.000481921 0.542163 -0.142578
Spine  27.3528 -5.93346 10.5712
Spine1  18.4811 -5.16853 4.09627
HEad  1.85656 4.86597 -7.84723
LeftShoulder1  4.8747 -17.5332 -16.4084
LeftArm  -22.503 -43.1899 -62.1314
LeftForeArm  -179.69 -68.7424 -156.266
LeftHand  -0.25398 0.0180481 5.50724
RightShoulder  2.1438 9.90556 8.56998
RightArm  -17.7497 46.7853 59.5423
RightForeArm  150.328 69.8195 150.988
RightHand  -2.1227 8.65758 -17.8494
LeftUpLeg  -11.9004 20.9112 8.65916
LeftLeg  33.9594 7.07233 5.45319
LeftFoot  -8.61531 0.300068 -10.4336
LeftToes  1.06244e-005 4.65869e-005 -8.65518e-006
1220
root  32.7682 38.2258 12.0544 26.8201 82.2534 32.0859
RightUpLeg  -18.0697 -17.0853 -9.04837
RightLeg  36.6746 -3.03641 -2.69971
RightFoot  -9.94239 -0.0663427 0.566474
RightToes  0.000481921 0.542163 -0.142578
Spine  26.044 -5.80666 10.055
Spine1  18.0744 -5.25022 3.89042
HEad  0.987523 6.6857 -9.73059
LeftShoulder1  5.10955 -17.6923 -17.4191
LeftArm  -22.3464 -42.9141 -58.9952
LeftForeArm  176.9 -69.0243 -155.52
LeftHand  -0.25398 0.0180481 5.50724
RightShoulder  2.40852 10.2305 10.2973
RightArm  -14.9012 43.2933 60.5262
RightForeArm  153.744 68.6215 153.107
RightHand  -1.94267 8.34635 -16.7511
LeftUpLeg  -10.5351 21.9031 8.35903
LeftLeg  29.5887 6.89197 4.55803
LeftFoot  -6.7665 0.434244 -9.84298
LeftToes  1.06244e-005 4.65869e-005 -8.65518e-006
1221
root  32.931 38.7372 11.9843 27.2197 82.2408 31.6382
RightUpLeg  -16.4425 -17.9764 -8.99515
RightLeg  32.174 -2.49112 -1.94086
RightFoot  -8.11439 -0.0614226 0.543732
RightToes  0.000481921 0.542163 -0.142578
Spine  24.9201 -5.56946 9.29317
Spine1  17.1856 -5.20797 3.67834
HEad  -0.421682 8.55202 -12.1283
LeftShoulder1  5.3716 -17.8213 -18.5866
LeftArm  -20.7884 -42.5857 -55.6942
LeftForeArm  174.26 -69.4074 -154.72
LeftHand  -0.25398 0.0180481 5.50724
RightShoulder  2.75958 10.6759 12.4327
RightArm  -11.8427 38.7715 61.4936
RightForeArm  156.775 67.5615 154.792
RightHand  -1.84447 8.21298 -16.0854
LeftUpLeg  -8.71469 23.1993 8.01489
LeftLeg  24.5275 6.46637 3.57352
LeftFoot  -4.66066 0.566213 -9.21249
LeftToes  1.06244e-005 4.65869e-005 -8.65518e-006
1222
root  33.1223 39.1987 11.922 28.4155 82.3577 31.949
RightUpLeg  -14.7953 -19.0457 -8.98018
RightLeg  27.7208 -1.87768 -1.30772
RightFoot  -6.40003 -0.0738616 0.787567
RightToes  0.000481921 0.542163 -0.142578
Spine  23.7704 -5.19436 8.27207
Spine1  15.995 -5.09571 3.6363
HEad  -2.21078 10.0566 -14.7892
LeftShoulder1  5.5867 -17.8809 -19.591
LeftArm  -18.2771 -41.7318 -53.5119
LeftForeArm  176.556 -69.2976 -155.139
LeftHand  -0.25398 0.0180481 5.50724
RightShoulder  3.18979 11.1619 14.9474
RightArm  -8.52334 33.2028 62.0385
RightForeArm  159.142 66.2442 156.532
RightHand  -1.81013 7.96482 -16.0757
LeftUpLeg  -6.81487 24.5323 7.69644
LeftLeg  19.2823 5.75005 2.48155
LeftFoot  -2.47906 0.675923 -8.52246
LeftToes  1.06244e-005 4.65869e-005 -8.65518e-006
1223
root  33.3383 39.5785 11.8599 30.5889 82.9332 33.2197
RightUpLeg  -13.1844 -20.6017 -8.89528
RightLeg  23.5915 -1.20275 -0.82228
RightFoot  -4.92022 -0.106763 1.29865
RightToes  0.000481921 0.542163 -0.142578
Spine  22.1695 -4.8759 7.25481
Spine1  15.1177 -5.05557 3.58443
HEad  -3.6972 11.1806 -16.767
LeftShoulder1  5.7341 -17.8478 -20.3733
LeftArm  -15.9013 -40.2997 -52.8909
LeftForeArm  -178.431 -68.6129 -156.563
LeftHand  -0.25398 0.0180481 5.50724
RightShoulder  3.69302 11.7898 17.5586
RightArm  -5.11625 27.1855 62.1752
RightForeArm  160.276 64.9873 157.918
RightHand  -1.85124 7.91869 -16.4787
LeftUpLeg  -4.99984 23.0169 7.8511
LeftLeg  14.3526 7.22114 0.947778
LeftFoot  -0.413529 0.756622 -7.87503
LeftToes  1.06244e-005 4.65869e-005 -8.65518e-006
1224
root  33.5655 39.8597 11.7895 34.2668 84.0803 36.2546
RightUpLeg  -11.3681 -22.086 -8.93929
RightLeg  20.0467 -1.08105 -0.41503
RightFoot  -3.75962 -0.148028 1.84946
RightToes  0.000481921 0.542163 -0.142578
Spine  20.3094 -4.80635 6.52808
Spine1  14.7587 -5.08862 3.10851
HEad  -4.53946 11.9586 -17.5561
LeftShoulder1  5.78008 -17.6124 -20.9256
LeftArm  -14.0175 -38.5411 -53.4934
LeftForeArm  -176.358 -67.9464 -157.546
LeftHand  -0.25398 0.0180481 5.50724
RightShoulder  4.23751 12.4602 20.1375
RightArm  -2.12416 21.3269 62.074
RightForeArm  159.813 64.2771 158.523
RightHand  -2.06999 8.6093 -17.4719
LeftUpLeg  -3.24183 16.0838 8.62404
LeftLeg  10.0234 13.2803 -1.2006
LeftFoot  1.35353 0.817609 -7.41502
LeftToes  1.06244e-005 4.65869e-005 -8.65518e-006
1225
root  33.7747 40.0362 11.7203 48.3599 85.8096 50.1172
RightUpLeg  -9.27437 -21.7896 -9.57206
RightLeg  17.5195 -3.38528 -0.0258128
RightFoot  -3.04413 -0.181237 2.21438
RightToes  0.000481921 0.542163 -0.142578
Spine  18.6534 -4.96491 5.83198
Spine1  14.6563 -5.26917 2.48476
HEad  -4.85601 12.4016 -17.3103
LeftShoulder1  5.67343 -17.0435 -21.1897
LeftArm  -12.1323 -36.7624 -54.9255
LeftForeArm  -177.19 -67.6464 -157.773
LeftHand  -0.25398 0.0180481 5.50724
RightShoulder  4.77482 12.8685 22.935
RightArm  0.446471 15.9171 61.1858
RightForeArm  159.085 63.8273 158.845
RightHand  -2.47999 9.94259 -19.0654
LeftUpLeg  -2.18418 11.2401 8.81863
LeftLeg  6.79253 16.2815 -2.45137
LeftFoot  2.75737 0.860011 -7.08517
LeftToes  1.06244e-005 4.65869e-005 -8.65518e-006
1226
root  33.9339 40.1155 11.6664 94.5339 86.9253 96.2856
RightUpLeg  -7.40986 -21.3828 -10.3933
RightLeg  16.3652 -6.89713 0.0132607
RightFoot  -2.86328 -0.19735 2.39873
RightToes  0.000481921 0.542163 -0.142578
Spine  17.3415 -4.90436 4.15574
Spine1  14.6711 -5.90895 3.72431
HEad  -4.95122 11.873 -17.319
LeftShoulder1  5.78857 -16.5207 -22.5683
LeftArm  -9.80098 -35.2972 -56.0137
LeftForeArm  -177.292 -67.5153 -157.898
LeftHand  -0.25398 0.0180481 5.50724
RightShoulder  5.14744 12.8868 25.2841
RightArm  2.78886 11.4918 58.8999
RightForeArm  159.904 63.5488 159.178
RightHand  -2.79025 11.0954 -19.9423
LeftUpLeg  -2.27788 9.48574 8.53903
LeftLeg  5.48825 14.837 -2.64067
LeftFoot  3.78146 0.859957 -6.64755
LeftToes  1.06244e-005 4.65869e-005 -8.65518e-006
1227
root  34.0211 40.1156 11.6179 152.534 84.3978 154.37
RightUpLeg  -5.91574 -22.3483 -11.1546
RightLeg  16.4543 -10.1243 -0.399673
RightFoot  -3.10393 -0.213803 2.67557
RightToes  0.000481921 0.542163 -0.142578
Spine  16.4274 -4.8907 2.42388
Spine1  14.8739 -6.70828 5.43767
HEad  -4.72395 9.90069 -17.1828
LeftShoulder1  5.90771 -16.0836 -23.8905
LeftArm  -6.81694 -33.9327 -57.1393
LeftForeArm  -175.882 -67.2774 -158.299
LeftHand  -0.25398 0.0180481 5.50724
RightShoulder  5.44279 12.9496 27.0276
RightArm  3.92795 9.72977 55.5526
RightForeArm  160.052 64.4723 158.365
RightHand  -2.59228 10.9279 -18.7257
LeftUpLeg  -3.54343 9.38785 8.09678
LeftLeg  6.03286 10.4079 -2.34477
LeftFoot  4.34899 0.825828 -6.18112
LeftToes  1.06244e-005 4.65869e-005 -8.65518e-006
